<svg width="16" height="19" viewBox="0 0 16 19" fill="none" xmlns="http://www.w3.org/2000/svg">
<path d="M0 16.4606V7.46057C0 7.1439 0.0709998 6.8439 0.213 6.56057C0.355 6.27724 0.550667 6.0439 0.8 5.86057L6.8 1.36057C7.15 1.0939 7.55 0.960571 8 0.960571C8.45 0.960571 8.85 1.0939 9.2 1.36057L15.2 5.86057C15.45 6.0439 15.646 6.27724 15.788 6.56057C15.93 6.8439 16.0007 7.1439 16 7.46057V16.4606C16 17.0106 15.804 17.4816 15.412 17.8736C15.02 18.2656 14.5493 18.4612 14 18.4606H11C10.7167 18.4606 10.4793 18.3646 10.288 18.1726C10.0967 17.9806 10.0007 17.7432 10 17.4606V12.4606C10 12.1772 9.904 11.9399 9.712 11.7486C9.52 11.5572 9.28267 11.4612 9 11.4606H7C6.71667 11.4606 6.47933 11.5566 6.288 11.7486C6.09667 11.9406 6.00067 12.1779 6 12.4606V17.4606C6 17.7439 5.904 17.9816 5.712 18.1736C5.52 18.3656 5.28267 18.4612 5 18.4606H2C1.45 18.4606 0.979333 18.2649 0.588 17.8736C0.196666 17.4822 0.000666667 17.0112 0 16.4606Z" fill="black"/>
</svg>
